<?xml version="1.0" encoding="utf-8"?>
<!-- Generator: Adobe Illustrator 22.0.0, SVG Export Plug-In . SVG Version: 6.00 Build 0)  -->
<svg version="1.1" id="图层_1" xmlns="http://www.w3.org/2000/svg" xmlns:xlink="http://www.w3.org/1999/xlink" x="0px" y="0px"
	 viewBox="0 0 64 64" style="enable-background:new 0 0 64 64;" xml:space="preserve">
<style type="text/css">
	.st0{clip-path:url(#SVGID_2_);fill:#6699FF;}
	.st1{fill:#6699FF;}
</style>
<g>
	<g>
		<defs>
			<rect id="SVGID_1_" x="1.4" y="9.1" width="61.1" height="45.9"/>
		</defs>
		<clipPath id="SVGID_2_">
			<use xlink:href="#SVGID_1_"  style="overflow:visible;"/>
		</clipPath>
		<path class="st0" d="M62,29.7C61.5,28.8,51.5,9.1,32,9.1C12.6,9.1,2.5,28.8,2,29.7c-0.8,1.4-0.8,3.2,0,4.6
			c0.5,0.9,10.6,20.6,30,20.6c19.5,0,29.5-19.7,30-20.6C62.7,32.9,62.7,31.1,62,29.7L62,29.7z M32,49.8C15.5,49.8,6.6,32,6.6,32
			S15.5,14.2,32,14.2C48.5,14.2,57.4,32,57.4,32S48.5,49.8,32,49.8L32,49.8z M32,49.8"/>
	</g>
	<path class="st1" d="M32,21.8c-5.6,0-10.2,4.6-10.2,10.2c0,5.6,4.6,10.2,10.2,10.2c5.6,0,10.2-4.6,10.2-10.2
		C42.2,26.4,37.6,21.8,32,21.8L32,21.8z M32,37.1c-2.8,0-5.1-2.3-5.1-5.1c0-2.8,2.3-5.1,5.1-5.1c2.8,0,5.1,2.3,5.1,5.1
		C37.1,34.8,34.8,37.1,32,37.1L32,37.1z M32,37.1"/>
</g>
</svg>
